<svg width="57" height="23" viewBox="0 0 57 23" fill="none" xmlns="http://www.w3.org/2000/svg">
<g clip-path="url(#clip0_123_178)">
<path d="M7.65939 3.80506L7.66794 3.76481L7.69073 3.59518L6.63624 3.58943C5.68434 3.58368 5.39221 3.58943 5.36656 3.61387C5.35374 3.62537 5.02456 4.88606 4.43889 7.16881C4.15959 8.25843 3.92446 9.12812 3.91591 9.10225C3.90736 9.07637 3.57391 7.83293 3.17206 6.33937C2.93146 5.42619 2.68255 4.51525 2.42536 3.60668C2.41111 3.59231 1.13431 3.58656 0.0997605 3.59518C-0.0498645 3.59662 -0.13394 3.3005 1.43641 8.3375C1.65301 9.03468 1.97934 10.0222 2.15889 10.5311C2.36694 11.1176 2.51514 11.5719 2.61631 11.9499C2.79586 12.6701 2.80156 13.1215 2.76309 13.6491C2.71749 14.2571 2.71179 18.5552 2.75596 18.6271C2.79016 18.6817 4.78659 18.7076 4.97611 18.6559C5.00604 18.6472 5.02599 18.6185 5.04024 18.4561C5.08726 18.3166 5.09154 17.7603 5.09154 15.4517V12.5034L5.21979 12.0966C5.30386 11.8306 5.51334 11.1306 5.68719 10.5412L6.15316 8.97431C6.90699 6.49606 7.62519 4.0595 7.64513 3.92006L7.66081 3.8065L7.65939 3.80506ZM18.8399 7.38156V7.53537H18.8157L18.8029 11.7803L18.7901 15.8959L18.4637 16.2308C18.0975 16.606 17.8054 16.7497 17.5403 16.6822C17.2511 16.6089 17.2596 16.7224 17.2354 11.8579L17.2126 7.38012H15.1121V7.53393H15.0879V12.3927C15.0879 17.5979 15.0879 17.595 15.3501 18.1168C15.5582 18.5337 15.8631 18.7364 16.3832 18.8054C17.0687 18.8974 17.8082 18.584 18.4937 17.9112L18.7915 17.6194V18.124C18.7915 18.5596 18.8043 18.6314 18.8827 18.653C19.0109 18.6889 20.6012 18.6918 20.7722 18.6559L20.9147 18.6257V18.4762L20.939 18.4719V7.35137L18.8414 7.38012L18.8399 7.38156ZM13.5133 9.57518C13.3138 8.71412 12.9419 8.13481 12.3277 7.73518C11.3644 7.107 10.2629 7.03943 9.24256 7.54831C8.49871 7.91918 8.01849 8.53443 7.77196 9.43718C7.74031 9.54575 7.7179 9.65684 7.70499 9.76925C7.64229 10.0884 7.63516 10.5627 7.61806 12.7779C7.59241 16.1906 7.63231 16.5959 8.05554 17.3707C8.47163 18.1312 9.33376 18.6889 10.2728 18.8039C10.555 18.8384 11.1278 18.7852 11.4584 18.6918C12.2066 18.4819 12.9248 17.8854 13.2425 17.2083C13.3824 16.9372 13.4736 16.6432 13.5119 16.3401C13.6045 15.8326 13.6116 15.0104 13.6116 12.9174C13.6116 10.2479 13.6031 9.95612 13.5147 9.57375L13.5133 9.57518ZM11.1179 16.5312C10.9013 16.6741 10.6375 16.7247 10.384 16.6721C10.1916 16.6304 9.93084 16.3257 9.85104 16.0482C9.75129 15.7018 9.74416 10.8819 9.82966 9.93743C9.97216 9.4645 10.3683 9.21725 10.8015 9.33512C11.1392 9.42712 11.3117 9.63987 11.41 10.0869C11.4827 10.419 11.4912 10.8316 11.4755 13.2595C11.4656 14.8695 11.4599 15.6572 11.4071 16.0799C11.3544 16.3458 11.2661 16.4177 11.1179 16.5327V16.5312ZM51.2202 11.9974H52.2348L52.2191 11.0702C52.2035 10.2192 52.1906 10.1229 52.0781 9.89143C51.8999 9.52775 51.6377 9.36531 51.2216 9.36531C50.7215 9.36531 50.4051 9.60968 50.2555 10.1099C50.1914 10.3227 50.1244 11.7875 50.1728 11.914C50.1999 11.9844 50.3453 11.9974 51.2202 11.9974ZM44.4372 9.88856C44.3768 9.76076 44.2797 9.65427 44.1585 9.58298C44.0372 9.5117 43.8975 9.47892 43.7575 9.48893C43.4923 9.50937 43.2397 9.6112 43.0336 9.78075L42.8526 9.92018V16.5816L43.0336 16.721C43.444 17.0372 43.8943 17.1034 44.2049 16.8935C44.3336 16.8019 44.4272 16.6684 44.47 16.5154C44.5512 16.2797 44.5583 15.9764 44.5484 13.1732C44.537 10.2522 44.5313 10.0797 44.4372 9.88856Z" fill="black"/>
<path d="M57.0199 6.88706C56.8176 4.44188 56.6565 3.64838 56.1578 2.62919C55.4952 1.27938 54.539 0.567814 53.1767 0.411126C52.1236 0.290376 48.1593 0.119314 44.4927 0.0373763C38.1429 -0.104936 27.7034 0.169626 26.3696 0.513189C25.7743 0.660563 25.2334 0.976822 24.8106 1.42456C23.9685 2.26981 23.4654 3.48306 23.2645 5.16206C22.8042 8.99444 22.7943 13.6232 23.2374 17.595C23.4284 19.3027 23.8217 20.4125 24.5598 21.3268C25.0201 21.8974 25.8153 22.3819 26.5249 22.5271C27.0237 22.6291 29.5174 22.77 33.1512 22.9008C33.6927 22.9209 35.1248 22.954 36.336 22.9756C38.8583 23.0201 43.4967 22.9943 46.1486 22.9195C47.9327 22.8692 51.1845 22.7355 51.793 22.6881C51.964 22.6751 52.3602 22.6492 52.6737 22.632C53.7267 22.5716 54.3965 22.3503 55.0249 21.8514C55.8386 21.206 56.4684 20.0143 56.7349 18.6156C56.9871 17.2931 57.1553 14.9371 57.1895 12.2619C57.218 10.0266 57.1795 8.82194 57.0199 6.88419V6.88706ZM31.7347 6.00156L30.5548 6.01594L30.5035 18.7091L29.4804 18.722C28.6895 18.7335 28.4487 18.7206 28.4301 18.6702C28.4159 18.6343 28.4002 15.7723 28.3931 12.3108L28.3803 6.01594L26.076 5.98719V4.00344L32.8861 4.03075L32.9146 5.98575L31.7347 6.00013V6.00156ZM38.9694 13.2768V18.7349H37.1055V18.1599C37.1055 17.7273 37.0899 17.5849 37.0386 17.5849C37.0015 17.5849 36.8334 17.7273 36.6638 17.9012C36.2947 18.2793 35.8587 18.5826 35.4853 18.7234C34.713 19.0152 33.9805 18.8442 33.6684 18.3023C33.382 17.8063 33.3777 17.6942 33.3777 12.5451V7.81569H35.2402L35.2545 12.2691C35.2687 16.6448 35.2701 16.7253 35.3742 16.9036C35.5124 17.1393 35.7219 17.204 36.0553 17.1106C36.252 17.0559 36.3859 16.9596 36.7037 16.6405L37.1055 16.238V7.81569H38.9694V13.2739V13.2768ZM46.2398 17.9558C46.0759 18.3252 45.7097 18.6861 45.409 18.7752C44.6267 19.0081 43.9983 18.8183 43.2729 18.1298C43.0478 17.9156 42.8383 17.7431 42.807 17.7431C42.7685 17.7431 42.7485 17.9098 42.7485 18.239V18.7349H40.8846V4.00344H42.7485V6.40694C42.7485 7.728 42.7656 8.81044 42.787 8.81044C42.8084 8.81044 43.005 8.63506 43.2245 8.42231C43.7289 7.93213 44.1493 7.7165 44.6837 7.67625C45.637 7.60294 46.2056 8.09888 46.4649 9.22875C46.5462 9.58094 46.5533 9.98344 46.5533 13.2509C46.5533 17.2299 46.5547 17.2471 46.2398 17.9558ZM54.1272 15.7708C54.1175 16.1215 54.0808 16.4709 54.0174 16.8159C53.7581 17.7848 53.0684 18.4719 52.0709 18.7536C50.7285 19.1331 49.2494 18.5121 48.6594 17.3204C48.3288 16.652 48.316 16.5183 48.316 13.2509C48.316 10.5872 48.326 10.2594 48.4101 9.89575C48.6495 8.86794 49.2423 8.20238 50.2469 7.83294C50.5376 7.72656 50.8411 7.6705 51.1446 7.66475C52.2291 7.64175 53.3035 8.22969 53.7552 9.18706C54.0588 9.8325 54.0972 10.1099 54.1272 11.9298L54.1542 13.5628L50.1799 13.5901L50.1657 14.6869C50.1443 16.2351 50.2483 16.7109 50.663 16.9913C51.0107 17.2284 51.5465 17.2098 51.8372 16.9524C52.1108 16.7109 52.1877 16.4508 52.2148 15.6918L52.239 15.0262H54.1585L54.1272 15.7708Z" fill="black"/>
</g>
<defs>
<clipPath id="clip0_123_178">
<rect width="57" height="23" fill="white"/>
</clipPath>
</defs>
</svg>
