<svg width="37" height="38" viewBox="0 0 37 38" fill="none" xmlns="http://www.w3.org/2000/svg">
<path d="M18.5 14.3752C17.2734 14.3752 16.097 14.8624 15.2297 15.7298C14.3623 16.5971 13.875 17.7735 13.875 19.0002C13.875 20.2268 14.3623 21.4032 15.2297 22.2705C16.097 23.1379 17.2734 23.6252 18.5 23.6252C19.7267 23.6252 20.9031 23.1379 21.7704 22.2705C22.6378 21.4032 23.125 20.2268 23.125 19.0002C23.125 17.7735 22.6378 16.5971 21.7704 15.7298C20.9031 14.8624 19.7267 14.3752 18.5 14.3752ZM18.5 11.2918C20.5444 11.2918 22.5051 12.104 23.9507 13.5495C25.3962 14.9951 26.2084 16.9558 26.2084 19.0002C26.2084 21.0445 25.3962 23.0052 23.9507 24.4508C22.5051 25.8964 20.5444 26.7085 18.5 26.7085C16.4557 26.7085 14.495 25.8964 13.0494 24.4508C11.6038 23.0052 10.7917 21.0445 10.7917 19.0002C10.7917 16.9558 11.6038 14.9951 13.0494 13.5495C14.495 12.104 16.4557 11.2918 18.5 11.2918ZM28.5209 10.9064C28.5209 11.4175 28.3178 11.9077 27.9564 12.2691C27.595 12.6305 27.1049 12.8335 26.5938 12.8335C26.0827 12.8335 25.5925 12.6305 25.2311 12.2691C24.8697 11.9077 24.6667 11.4175 24.6667 10.9064C24.6667 10.3953 24.8697 9.90516 25.2311 9.54376C25.5925 9.18236 26.0827 8.97933 26.5938 8.97933C27.1049 8.97933 27.595 9.18236 27.9564 9.54376C28.3178 9.90516 28.5209 10.3953 28.5209 10.9064ZM18.5 6.66683C14.686 6.66683 14.0631 6.67762 12.2887 6.75625C11.08 6.81329 10.2691 6.97516 9.51675 7.26808C8.88716 7.49923 8.31797 7.86973 7.85175 8.35187C7.36922 8.81807 6.99821 9.38723 6.76642 10.0169C6.4735 10.7723 6.31162 11.5817 6.25612 12.7888C6.17596 14.4908 6.16671 15.0859 6.16671 19.0002C6.16671 22.8142 6.1775 23.4371 6.25612 25.2115C6.31317 26.4187 6.47504 27.2311 6.76642 27.9819C7.0285 28.6525 7.33683 29.1351 7.84867 29.6469C8.36821 30.1649 8.85075 30.4748 9.51367 30.7307C10.2752 31.0252 11.0862 31.1886 12.2887 31.2441C13.9907 31.3242 14.5857 31.3335 18.5 31.3335C22.3141 31.3335 22.937 31.3227 24.7114 31.2441C25.917 31.187 26.7295 31.0252 27.4818 30.7338C28.1104 30.5015 28.6793 30.1317 29.1468 29.6515C29.6663 29.132 29.9762 28.6495 30.2321 27.9865C30.525 27.2265 30.6885 26.414 30.744 25.2115C30.8241 23.5095 30.8334 22.9145 30.8334 19.0002C30.8334 15.1861 30.8226 14.5632 30.744 12.7888C30.6869 11.5832 30.525 10.7692 30.2321 10.0169C29.9998 9.38787 29.6294 8.81894 29.1483 8.35187C28.6823 7.86909 28.1131 7.49804 27.4833 7.26654C26.7279 6.97362 25.917 6.81175 24.7114 6.75625C23.0094 6.67608 22.4143 6.66683 18.5 6.66683ZM18.5 3.5835C22.6887 3.5835 23.2114 3.59891 24.8548 3.676C26.4967 3.75308 27.6144 4.01054 28.598 4.39287C29.6155 4.78445 30.4726 5.31479 31.3298 6.17041C32.1137 6.94109 32.7203 7.87332 33.1073 8.90225C33.4881 9.88429 33.7471 11.0035 33.8242 12.6454C33.8967 14.2888 33.9167 14.8115 33.9167 19.0002C33.9167 23.1889 33.9013 23.7115 33.8242 25.3549C33.7471 26.9968 33.4881 28.1145 33.1073 29.0981C32.7214 30.1276 32.1147 31.06 31.3298 31.8299C30.5589 32.6136 29.6267 33.2201 28.598 33.6075C27.6159 33.9882 26.4967 34.2472 24.8548 34.3243C23.2114 34.3968 22.6887 34.4168 18.5 34.4168C14.3113 34.4168 13.7887 34.4014 12.1453 34.3243C10.5034 34.2472 9.38571 33.9882 8.40212 33.6075C7.37279 33.2212 6.4404 32.6145 5.67029 31.8299C4.88621 31.0594 4.2796 30.1271 3.89275 29.0981C3.51042 28.116 3.25296 26.9968 3.17587 25.3549C3.10342 23.7115 3.08337 23.1889 3.08337 19.0002C3.08337 14.8115 3.09879 14.2888 3.17587 12.6454C3.25296 11.002 3.51042 9.88583 3.89275 8.90225C4.27853 7.87269 4.88528 6.9402 5.67029 6.17041C6.44062 5.38606 7.37295 4.77941 8.40212 4.39287C9.38571 4.01054 10.5019 3.75308 12.1453 3.676C13.7887 3.60354 14.3113 3.5835 18.5 3.5835Z" fill="#F8F8F8"/>
</svg>
