<svg width="38" height="38" viewBox="0 0 38 38" fill="none" xmlns="http://www.w3.org/2000/svg">
<path d="M34.6665 9.21968C33.4895 9.74029 32.2414 10.0822 30.9634 10.2341C32.3104 9.42847 33.3186 8.16057 33.8001 6.66668C32.5359 7.41901 31.1499 7.94626 29.7054 8.23147C28.7351 7.19328 27.4489 6.50474 26.0469 6.27291C24.6449 6.04108 23.2056 6.27893 21.9528 6.9495C20.6999 7.62007 19.7036 8.68577 19.1189 9.98094C18.5342 11.2761 18.3938 12.7282 18.7195 14.1114C16.1558 13.9829 13.6479 13.3167 11.3585 12.156C9.06901 10.9954 7.04925 9.36621 5.4303 7.3743C4.85725 8.35858 4.55611 9.47748 4.55772 10.6164C4.55772 12.8518 5.69547 14.8267 7.42522 15.983C6.40156 15.9507 5.40044 15.6743 4.5053 15.1767V15.2568C4.50561 16.7456 5.02079 18.1885 5.96348 19.3408C6.90618 20.4931 8.21838 21.2839 9.67759 21.5792C8.72733 21.8367 7.73094 21.8747 6.76384 21.6902C7.17526 22.9717 7.97715 24.0924 9.05721 24.8955C10.1373 25.6986 11.4415 26.1438 12.7871 26.1688C11.4497 27.2191 9.91837 27.9956 8.28066 28.4538C6.64295 28.9119 4.931 29.0428 3.24268 28.8389C6.18988 30.7343 9.6207 31.7405 13.1248 31.7373C24.9848 31.7373 31.4706 21.9122 31.4706 13.3914C31.4706 13.1139 31.4629 12.8333 31.4506 12.5589C32.713 11.6465 33.8025 10.5162 34.668 9.22122L34.6665 9.21968Z" fill="#F8F8F8"/>
</svg>
