<svg width="40" height="24" viewBox="0 0 40 24" fill="none" xmlns="http://www.w3.org/2000/svg">
<path fill-rule="evenodd" clip-rule="evenodd" d="M35.604 16.5964C35.604 16.5964 38.838 19.7904 39.638 21.2684C39.6536 21.2897 39.6657 21.3133 39.674 21.3384C40 21.8844 40.08 22.3124 39.92 22.6284C39.65 23.1504 38.736 23.4124 38.426 23.4344H32.71C32.312 23.4344 31.484 23.3304 30.476 22.6344C29.706 22.0964 28.94 21.2104 28.198 20.3444C27.09 19.0584 26.132 17.9424 25.162 17.9424C25.0395 17.9421 24.9178 17.9624 24.802 18.0024C24.068 18.2344 23.136 19.2804 23.136 22.0664C23.136 22.9384 22.448 23.4344 21.966 23.4344H19.348C18.456 23.4344 13.812 23.1224 9.694 18.7804C4.648 13.4644 0.115997 2.80041 0.071997 2.70641C-0.210003 2.01641 0.381997 1.64041 1.022 1.64041H6.794C7.568 1.64041 7.82 2.10841 7.996 2.52841C8.2 3.01041 8.956 4.93841 10.196 7.10441C12.204 10.6284 13.438 12.0624 14.424 12.0624C14.6092 12.0629 14.7914 12.0147 14.952 11.9224C16.24 11.2144 16 6.61441 15.94 5.66641C15.94 5.48241 15.938 3.61241 15.278 2.70841C14.806 2.06041 14.002 1.80841 13.516 1.71641C13.646 1.52841 13.922 1.24041 14.276 1.07041C15.158 0.630406 16.752 0.566406 18.334 0.566406H19.212C20.928 0.590406 21.372 0.700406 21.996 0.858406C23.252 1.15841 23.276 1.97241 23.166 4.74441C23.134 5.53641 23.1 6.42841 23.1 7.47841C23.1 7.70241 23.09 7.9524 23.09 8.20641C23.052 9.62841 23.002 11.2304 24.006 11.8884C24.1362 11.9695 24.2866 12.0125 24.44 12.0124C24.788 12.0124 25.83 12.0124 28.656 7.16241C29.896 5.02041 30.856 2.49441 30.922 2.30441C30.978 2.19841 31.146 1.90041 31.35 1.78041C31.4951 1.7032 31.6577 1.66463 31.822 1.66841H38.612C39.352 1.66841 39.854 1.78041 39.952 2.06041C40.116 2.51441 39.92 3.90041 36.82 8.0924C36.298 8.79041 35.84 9.39441 35.438 9.92241C32.628 13.6104 32.628 13.7964 35.604 16.5964Z" fill="white"/>
</svg>
