<svg width="37" height="26" viewBox="0 0 37 26" fill="none" xmlns="http://www.w3.org/2000/svg">
<path d="M14.8 18.5714L24.4015 13L14.8 7.42857V18.5714ZM36.186 4.03C36.4265 4.90286 36.593 6.07286 36.704 7.55857C36.8335 9.04428 36.889 10.3257 36.889 11.44L37 13C37 17.0671 36.704 20.0571 36.186 21.97C35.7235 23.6414 34.6505 24.7186 32.9855 25.1829C32.116 25.4243 30.525 25.5914 28.083 25.7029C25.678 25.8329 23.4765 25.8886 21.4415 25.8886L18.5 26C10.7485 26 5.92 25.7029 4.0145 25.1829C2.3495 24.7186 1.2765 23.6414 0.814 21.97C0.5735 21.0971 0.407 19.9271 0.296 18.4414C0.1665 16.9557 0.111 15.6743 0.111 14.56L0 13C0 8.93286 0.296 5.94286 0.814 4.03C1.2765 2.35857 2.3495 1.28143 4.0145 0.817143C4.884 0.575714 6.475 0.408571 8.917 0.297143C11.322 0.167143 13.5235 0.111428 15.5585 0.111428L18.5 0C26.2515 0 31.08 0.297143 32.9855 0.817143C34.6505 1.28143 35.7235 2.35857 36.186 4.03Z" fill="white"/>
</svg>
