<svg width="78" height="61" viewBox="0 0 78 61" fill="none" xmlns="http://www.w3.org/2000/svg">
<path opacity="0.2" d="M78 0L61.4483 37.2421L60 27.1825C63.1724 27.1825 66 27.9673 68.4828 29.5368C70.9655 31.1064 72.9655 33.1754 74.4828 35.7439C76 38.1696 76.7586 40.952 76.7586 44.0912C76.7586 47.2304 76 50.0842 74.4828 52.6526C72.9655 55.2211 70.9655 57.2901 68.4828 58.8597C66 60.2866 63.1724 61 60 61C56.9655 61 54.1379 60.2866 51.5172 58.8597C49.0345 57.2901 47.0345 55.1497 45.5172 52.4386C44 49.7275 43.2414 46.731 43.2414 43.4491C43.2414 40.1673 43.8621 36.7427 45.1034 33.1754C46.4828 29.6082 48.8966 24.9708 52.3448 19.2632L63.5172 0H78ZM34.7586 0L18.2069 37.2421L16.7586 27.1825C19.931 27.1825 22.7586 27.9673 25.2414 29.5368C27.7241 31.1064 29.7241 33.1754 31.2414 35.7439C32.7586 38.1696 33.5172 40.952 33.5172 44.0912C33.5172 47.2304 32.7586 50.0842 31.2414 52.6526C29.7241 55.2211 27.7241 57.2901 25.2414 58.8597C22.7586 60.2866 19.931 61 16.7586 61C13.7241 61 10.8966 60.2866 8.27586 58.8597C5.7931 57.2901 3.7931 55.1497 2.27586 52.4386C0.758621 49.7275 0 46.731 0 43.4491C0 40.1673 0.62069 36.7427 1.86207 33.1754C3.24138 29.6082 5.65517 24.9708 9.10345 19.2632L20.2759 0H34.7586Z" fill="#F28A91"/>
</svg>
